<svg xmlns="http://www.w3.org/2000/svg" viewBox="0 0 445 445" width="445" height="445">
	<style>
		tspan { white-space:pre }
		.shp0 { fill: #1b5ebf } 
		.shp1 { fill: #90cf00 } 
	</style>
	<g id="Layer 1">
		<path id="&lt;Path&gt;" class="shp0" d="M268.06 211.75C245.67 284.93 172.31 297.04 165.47 299.57L21.42 299.57C10.11 299.57 0.95 290.4 0.95 279.09L0.95 167.17C0.95 155.86 10.11 146.69 21.42 146.69C81.53 146.34 124.87 144.84 151.44 142.2C195.95 138.04 276.99 116.24 276.99 81.62C276.99 58.54 276.99 41.45 276.99 30.35C276.99 26.59 273.93 23.52 270.17 23.52L176.71 23.52C172.95 23.52 169.89 26.59 169.89 30.35L169.89 125.94C159.11 128.3 151.48 128.44 147 126.34L147 21.11C147 9.81 156.17 0.64 167.47 0.64L279.4 0.64C290.7 0.64 299.87 9.81 299.87 21.11L299.87 85.89C299.87 114.93 232.35 153.84 152.8 163.52C123.52 167.05 82.8 169.06 30.66 169.58C26.89 169.58 23.83 172.63 23.83 176.4L23.83 269.86C23.83 273.62 26.89 276.68 30.66 276.68L179.12 276.68C221.77 264.39 251.41 242.74 268.06 211.75Z" />
		<path id="&lt;Path&gt;" class="shp1" d="M177.41 233.97C199.79 160.79 273.16 148.68 280 146.15L424.05 146.15C435.36 146.15 444.52 155.32 444.52 166.63L444.52 278.55C444.52 289.86 435.36 299.03 424.05 299.03C363.94 299.38 320.6 300.88 294.03 303.52C249.52 307.68 168.48 329.48 168.48 364.11C168.48 387.18 168.48 404.27 168.48 415.37C168.48 419.13 171.54 422.2 175.3 422.2L268.76 422.2C272.53 422.2 275.58 419.13 275.58 415.37L275.58 319.78C286.36 317.42 293.99 317.28 298.47 319.38L298.47 424.61C298.47 435.91 289.3 445.08 278 445.08L166.07 445.08C154.77 445.08 145.6 435.91 145.6 424.61L145.6 359.83C145.6 330.79 213.12 291.87 292.67 282.2C321.95 278.67 362.66 276.66 414.81 276.14C418.58 276.14 421.64 273.09 421.64 269.32L421.64 175.86C421.64 172.1 418.58 169.04 414.81 169.04L266.35 169.04C223.7 181.33 194.06 202.98 177.41 233.97Z" />
	</g>
</svg>